<svg xmlns="http://www.w3.org/2000/svg" viewBox="0 0 512 512">
  <rect width="512" height="512" rx="128" fill="#18181b"/>
  <path d="M416 96c-17.7 0-32 14.3-32 32s14.3 32 32 32 32-14.3 32-32-14.3-32-32-32zm-32 256c-17.7 0-32 14.3-32 32s14.3 32 32 32 32-14.3 32-32-14.3-32-32-32zm-64-128c-17.7 0-32 14.3-32 32s14.3 32 32 32 32-14.3 32-32-14.3-32-32-32zm-64 128c-17.7 0-32 14.3-32 32s14.3 32 32 32 32-14.3 32-32-14.3-32-32-32zM96 96c-17.7 0-32 14.3-32 32s14.3 32 32 32 32-14.3 32-32-14.3-32-32-32zm320 320c-17.7 0-32 14.3-32 32s14.3 32 32 32 32-14.3 32-32-14.3-32-32-32z" fill="#3f3f46" opacity="0.5"/>
  <path d="M384 128c-50 0-90 40-90 90 0 30 15 55 40 70l-20 60c-5 15-25 15-30 0l-10-30c-10-30-50-40-70-20l-40 40c-20 20-20 50 0 70l20 20c20 20 50 20 70 0l30-30c20-20 50-20 70 0l20 20c20 20 50 20 70 0l20-20c20-20 20-50 0-70l-30-30c-15-15-20-40-10-60l10-20c20-40 0-90-50-90z" fill="#8b5cf6"/>
  <path d="M150 350l-40 40c-20 20-20 50 0 70l20 20c20 20 50 20 70 0l40-40" stroke="#a78bfa" stroke-width="20" stroke-linecap="round"/>
</svg>
